<svg width="197" height="106" viewBox="0 0 197 106" fill="none" xmlns="http://www.w3.org/2000/svg">
<path d="M20.7949 37.2686C20.7949 39.7705 19.8721 41.7529 18.0264 43.2158C16.1943 44.6787 13.7539 45.4102 10.7051 45.4102C7.04102 45.4102 4.23145 45.0068 2.27637 44.2002V42.1084C4.43652 43.0244 7.19141 43.4824 10.541 43.4824C13.002 43.4824 14.9502 42.9219 16.3857 41.8008C17.835 40.666 18.5596 39.1826 18.5596 37.3506C18.5596 36.2158 18.3203 35.2793 17.8418 34.541C17.3633 33.7891 16.584 33.1055 15.5039 32.4902C14.4238 31.875 12.8379 31.2119 10.7461 30.501C7.68359 29.4482 5.56445 28.3135 4.38867 27.0967C3.22656 25.8662 2.64551 24.2324 2.64551 22.1953C2.64551 19.9531 3.52051 18.1279 5.27051 16.7197C7.03418 15.2979 9.29688 14.5869 12.0586 14.5869C14.875 14.5869 17.5205 15.1201 19.9951 16.1865L19.2363 17.9912C16.748 16.9521 14.3691 16.4326 12.0996 16.4326C9.88477 16.4326 8.12109 16.9453 6.80859 17.9707C5.49609 18.9961 4.83984 20.3906 4.83984 22.1543C4.83984 23.2617 5.03809 24.1709 5.43457 24.8818C5.84473 25.5928 6.50781 26.2354 7.42383 26.8096C8.33984 27.3701 9.91211 28.0469 12.1406 28.8398C14.4785 29.6465 16.2354 30.4326 17.4111 31.1982C18.5869 31.9502 19.4414 32.8115 19.9746 33.7822C20.5215 34.7393 20.7949 35.9014 20.7949 37.2686ZM54.4688 45V30.3779C54.4688 28.2041 54.0449 26.6182 53.1973 25.6201C52.3496 24.6221 51.0508 24.123 49.3008 24.123C47.0176 24.123 45.3291 24.752 44.2354 26.0098C43.1416 27.2676 42.5947 29.2432 42.5947 31.9365V45H40.5234V29.7627C40.5234 26.0029 38.8008 24.123 35.3555 24.123C33.0176 24.123 31.3154 24.8066 30.249 26.1738C29.1826 27.5273 28.6494 29.7012 28.6494 32.6953V45H26.6191V22.708H28.3008L28.7314 25.7637H28.8545C29.4697 24.6562 30.3447 23.8018 31.4795 23.2002C32.6143 22.585 33.8652 22.2773 35.2324 22.2773C38.7461 22.2773 41.002 23.5967 42 26.2354H42.082C42.8066 24.9639 43.7773 23.9863 44.9941 23.3027C46.2246 22.6191 47.6191 22.2773 49.1777 22.2773C51.6113 22.2773 53.4365 22.9268 54.6533 24.2256C55.8701 25.5244 56.4785 27.5889 56.4785 30.4189V45H54.4688ZM77.2324 45L76.7197 41.4727H76.5557C75.4346 42.9082 74.2793 43.9268 73.0898 44.5283C71.9141 45.1162 70.5195 45.4102 68.9062 45.4102C66.7188 45.4102 65.0166 44.8496 63.7998 43.7285C62.583 42.6074 61.9746 41.0557 61.9746 39.0732C61.9746 36.8994 62.877 35.2109 64.6816 34.0078C66.5 32.8047 69.125 32.1689 72.5566 32.1006L76.8018 31.9775V30.501C76.8018 28.3818 76.3711 26.7822 75.5098 25.7021C74.6484 24.6221 73.2607 24.082 71.3467 24.082C69.2822 24.082 67.1426 24.6562 64.9277 25.8047L64.1689 24.041C66.6162 22.8926 69.0361 22.3184 71.4287 22.3184C73.876 22.3184 75.7012 22.9541 76.9043 24.2256C78.1211 25.4971 78.7295 27.4795 78.7295 30.1729V45H77.2324ZM69.0293 43.5645C71.4082 43.5645 73.2812 42.8877 74.6484 41.5342C76.0293 40.167 76.7197 38.2734 76.7197 35.8535V33.6592L72.8232 33.8232C69.6924 33.9736 67.457 34.4658 66.1172 35.2998C64.791 36.1201 64.1279 37.4053 64.1279 39.1553C64.1279 40.5498 64.5518 41.6367 65.3994 42.416C66.2607 43.1816 67.4707 43.5645 69.0293 43.5645ZM94.7461 22.2773C95.6895 22.2773 96.7012 22.373 97.7812 22.5645L97.3916 24.5127C96.4619 24.2803 95.498 24.1641 94.5 24.1641C92.5996 24.1641 91.041 24.9707 89.8242 26.584C88.6074 28.1973 87.999 30.2344 87.999 32.6953V45H85.9688V22.708H87.6914L87.8965 26.7275H88.04C88.9561 25.0869 89.9336 23.9385 90.9727 23.2822C92.0117 22.6123 93.2695 22.2773 94.7461 22.2773ZM108.22 43.6055C109.505 43.6055 110.626 43.4961 111.583 43.2773V44.918C110.599 45.2461 109.464 45.4102 108.179 45.4102C106.21 45.4102 104.754 44.8838 103.811 43.8311C102.881 42.7783 102.416 41.124 102.416 38.8682V24.4717H99.1143V23.2822L102.416 22.3594L103.441 17.3145H104.487V22.708H111.029V24.4717H104.487V38.5811C104.487 40.29 104.788 41.5547 105.39 42.375C105.991 43.1953 106.935 43.6055 108.22 43.6055ZM116.915 15.0176H125.139C128.844 15.0176 131.564 15.6465 133.301 16.9043C135.037 18.1621 135.905 20.0625 135.905 22.6055C135.905 24.3418 135.372 25.791 134.306 26.9531C133.253 28.1016 131.708 28.8398 129.671 29.168V29.291C132.063 29.6465 133.82 30.4053 134.941 31.5674C136.076 32.7158 136.644 34.3223 136.644 36.3867C136.644 39.1484 135.728 41.2744 133.896 42.7646C132.063 44.2549 129.466 45 126.103 45H116.915V15.0176ZM119.007 28.3682H125.61C128.427 28.3682 130.471 27.9033 131.742 26.9736C133.027 26.0303 133.67 24.5605 133.67 22.5645C133.67 20.5684 132.945 19.1191 131.496 18.2168C130.061 17.3145 127.914 16.8633 125.057 16.8633H119.007V28.3682ZM119.007 30.2139V43.1543H126.062C131.612 43.1543 134.388 40.8984 134.388 36.3867C134.388 32.2715 131.462 30.2139 125.61 30.2139H119.007Z" fill="#9D4D4D"/>
<path d="M186.396 44L178.878 34.214L171.36 44H168.966L177.66 32.702L169.428 22.076H171.822L178.878 31.19L185.934 22.076H188.286L180.054 32.702L188.874 44H186.396Z" fill="#9D4D4D"/>
<g filter="url(#filter0_d)">
<path d="M122.005 61.0269L140.284 54.3295V78.3674L122.255 85.3785L122.005 61.0269Z" fill="#A41F1F"/>
<path d="M122.005 61.0269L166.325 68.1012V92.8904L122.255 85.3785L122.005 61.0269Z" fill="#BA462D" fill-opacity="0.9"/>
<path d="M140.033 54.5798L184.103 61.3405V85.3785L140.033 78.6178V54.5798Z" fill="#BA462D" fill-opacity="0.9"/>
<path d="M145.541 44.564L188.86 50.5735L184.103 61.3405L139.871 54.6414L145.541 44.564Z" fill="#8F4545"/>
<path d="M140.034 78.6177L184.103 85.3785L166.325 92.8903L122.255 85.3785L140.034 78.6177Z" fill="#9D4D4D" fill-opacity="0.6"/>
<path d="M166.075 68.1011L184.104 61.3405V85.3784L166.326 92.8903L166.075 68.1011Z" fill="#DD7345" fill-opacity="0.9"/>
<path d="M122.005 61.0268L166.074 68.0378L162.819 56.0821L119 49.5718L122.005 61.0268Z" fill="#9D4D4D" fill-opacity="0.95"/>
</g>
<circle cx="154" cy="32" r="11.5" fill="#F7E173" stroke="#B79C10"/>
<defs>
<filter id="filter0_d" x="111" y="40" width="85.9995" height="65.4639" filterUnits="userSpaceOnUse" color-interpolation-filters="sRGB">
<feFlood flood-opacity="0" result="BackgroundImageFix"/>
<feColorMatrix in="SourceAlpha" type="matrix" values="0 0 0 0 0 0 0 0 0 0 0 0 0 0 0 0 0 0 127 0"/>
<feOffset dy="4"/>
<feGaussianBlur stdDeviation="4"/>
<feColorMatrix type="matrix" values="0 0 0 0 0 0 0 0 0 0 0 0 0 0 0 0 0 0 0.25 0"/>
<feBlend mode="normal" in2="BackgroundImageFix" result="effect1_dropShadow"/>
<feBlend mode="normal" in="SourceGraphic" in2="effect1_dropShadow" result="shape"/>
</filter>
</defs>
</svg>
